<svg xmlns="http://www.w3.org/2000/svg" x="0px" y="0px"
width="24" height="24"
viewBox="0 0 172 172"
style=" fill:#000000;"><g fill="none" fill-rule="nonzero" stroke="none" stroke-width="1" stroke-linecap="butt" stroke-linejoin="miter" stroke-miterlimit="10" stroke-dasharray="" stroke-dashoffset="0" font-family="none" font-weight="none" font-size="none" text-anchor="none" style="mix-blend-mode: normal"><path d="M0,172v-172h172v172z" fill="none"></path><g fill="#5965e0"><path d="M85.4625,6.9875c-1.505,0 -3.01,0.01344 -4.515,0.1075c-15.21125,0.95406 -30.35531,6.3425 -43.3225,16.34c-19.40375,14.96938 -30.73156,38.06844 -30.745,62.565c0,2.31125 -0.02687,4.73 0.3225,7.31l0.43,3.01h20.5325l-0.3225,-3.7625c-0.215,-2.16344 -0.34937,-4.38062 -0.3225,-6.5575c0.08063,-32.34406 26.24344,-58.34562 58.5875,-58.265c17.67031,0.04031 34.22531,8.15656 45.2575,21.8225l-9.9975,9.89l-5.805,5.9125h46.1175v-46.1175l-5.9125,5.805l-9.7825,9.89c-15.62781,-18.32875 -37.92062,-28.04406 -60.5225,-27.95zM85.6775,13.8675c21.70156,-0.06719 43.215,9.52719 57.5125,28.0575l2.365,3.1175l2.795,-2.795l6.45,-6.3425v22.575h-22.575l6.235,-6.3425l2.15,-2.0425l-1.8275,-2.365c-12.26844,-16.83719 -31.73937,-26.82125 -52.5675,-26.875c-36.05281,-0.09406 -65.48094,29.09219 -65.575,65.145c-0.01344,1.15563 0.05375,2.28438 0.1075,3.44h-6.7725c-0.04031,-1.14219 -0.215,-2.20375 -0.215,-3.44c0.01344,-22.37344 10.45438,-43.52406 28.165,-57.19c11.86531,-9.15094 25.57156,-13.96156 39.4525,-14.835c1.45125,-0.09406 2.84875,-0.1075 4.3,-0.1075zM143.7275,75.68l0.43,3.87c3.60125,32.1425 -19.4575,61.00625 -51.6,64.6075c-2.17687,0.24188 -4.36719,0.3225 -6.5575,0.3225c-17.76437,0 -34.34625,-8.25062 -45.365,-22.0375l9.9975,-9.89l5.805,-5.9125h-46.1175v46.1175l5.9125,-5.805l9.7825,-9.89c27.17063,31.87375 74.83344,37.35625 108.36,11.5025c19.40375,-14.96937 30.73156,-38.06844 30.745,-62.565c0,-2.31125 0.02688,-4.73 -0.3225,-7.31l-0.43,-3.01zM151.0375,82.56h6.9875c0.04031,1.14219 0.215,2.20375 0.215,3.44c-0.01344,22.37344 -10.45437,43.52406 -28.165,57.19c-31.61844,24.38906 -76.87594,18.50344 -101.265,-13.115l-2.365,-3.1175l-2.795,2.795l-6.45,6.3425v-22.575h22.575l-6.235,6.3425l-2.0425,2.0425l1.6125,2.365c12.24156,16.985 31.95438,27.09 52.89,27.09c2.44563,0 4.87781,-0.16125 7.31,-0.43c34.52094,-3.85656 59.51469,-34.11781 57.7275,-68.37z"></path></g></g></svg>